{"title":"My So Take (2010)(DivX)(nl subs) RETAIL NTSC TBS","uid":6124450,"size":1565867312,"categoryP":"video","categoryS":"movies","magnet":"?xt=urn:btih:8e22516bcc3718cdc189f381a7eb86611d5dcf3f&amp;dn=My+So+Take+%282010%29%28DivX%29%28nl+subs%29+RETAIL+NTSC+TBS&amp;tr=udp%3A%2F%2Ftracker.openbittorrent.com%3A80&amp;tr=udp%3A%2F%2Fopen.demonii.com%3A1337&amp;tr=udp%3A%2F%2Ftracker.coppersurfer.tk%3A6969&amp;tr=udp%3A%2F%2Fexodus.desync.com%3A6969","seeders":0,"leechers":0,"uploader":"BlackSam.","files":-1,"time":1295882615,"description":"My Soul to Take (2010)(DivX)(nl subs) NTSC TBS\n\n\n\n\n\n\nVerenigde Staten\nHorror / Thriller\n107 minuten\n\ngeregisseerd door Wes Craven\nmet Max Thieriot, Shareeka Epps en Denzel Whitaker\n\nEen groep jongeren krijgt te maken met een seriemoordenaar die 15 jaar eerder is gestorven en dan uitgerekend precies op de dag dat zij werden geboren. De seriemoordenaar duikt vijftien jaar na zijn vermeende dood weer op om de zeven kinderen te vermoorden\n\nStoryline\n\nIn the sleepy town of Riverton, legend tells of a serial killer who swore he would return to murder the seven children born the night he died. Now, 16 years \nlater, people are disappearing again. Has the psychopath been reincarnated as one of the seven teens, or did he survive the night he was left for dead? Only one of the kids knows the answer. Adam &quot;Bug&quot; Heller (Max Thieriot) was supposed to die on the last night the Riverton Ripper wrecked havoc on that terrifying night. Unaware of terrifying crimes being committed to the seven children, he has been plagued by nightmares of their murders while not aware if they hold true or if he is simply imagining the images that haunt him. But if Bug hopes to save his friends from the monster that's returned, he must face an evil that won't rest...until it finishes the job it began the day he was born\n\n\nSOURCE..........: My Soul To Take DVDR-MPTDVD\nSIZE............: 1.45GB\nFORM............: AVI\nVIDEO CODEC.....: XVID \nBITRATE.........: 1498 Kbit/s\nWIDTH &amp; HEIGHT..: 720 X 320\nFRAMES/S........: 23.00 Fps\nAUDIO...........: English\nAUDIO CODE......: AC3\nBITRATE.........: 448kbps\nCHANNELS........: 5\nSAMPLING........: 48.0 kHz\nSubtitles.......: Dutch srt\nCategorie.......: Beeld \nFormaat.........: DivX \nBron............: Retail\nOndertitels.....: Nederlands (extern)\nThanks..........: Hannes3\n\nGeneral\n\nFormat                           : DivX\nFormat/Info                      : Hack of AVI\nFile size                        : 1.46 GiB\nDuration                         : 1h 47mn\nOverall bit rate                 : 1 946 Kbps\n\nVideo\nID                               : 0\nFormat                           : MPEG-4 Visual\nFormat profile                   : Advanced Simple@L5\nFormat settings, BVOP            : Yes\nFormat settings, QPel            : No\nFormat settings, GMC             : No warppoints\nFormat settings, Matrix          : Default (H.263)\nMuxing mode                      : Packed bitstream\nCodec ID                         : DX50\nCodec ID/Hint                    : DivX 5\nDuration                         : 1h 47mn\nBit rate                         : 1 489 Kbps\nWidth                            : 720 pixels\nHeight                           : 320 pixels\nDisplay aspect ratio             : 2.25:1\nFrame rate                       : 23.976 fps\nColor space                      : YUV\nChroma subsampling               : 4:2:0\nBit depth                        : 8 bits\nScan type                        : Progressive\nBits/(Pixel*Frame)               : 0.269\nStream size                      : 1.12 GiB (76%)\nTitle                            : Video \nWriting library                  : XviD 1.2.1 (UTC 2008-12-04)\n\nAudio\nID                               : 1\nFormat                           : AC-3\nFormat/Info                      : Audio Coding 3\nMode extension                   : CM (complete main)\nCodec ID                         : 2000\nDuration                         : 1h 47mn\nBit rate mode                    : Constant\nBit rate                         : 448 Kbps\nChannel(s)                       : 6 channels\nChannel positions                : Front: L C R, Side: L R, LFE\nSampling rate                    : 48.0 KHz\nBit depth                        : 16 bits\nStream size                      : 344 MiB (23%)\nAlignment                        : Split accross interleaves\nInterleave, duration             : 42 ms (1.00 video frame)\nInterleave, preload duration     : 500 ms\nTitle                            : Audio   \n \n &lt;a href=&quot;\nhttp://www.moviemeter.nl/film/55264&quot; rel=&quot;nofollow&quot; target=&quot;_NEW&quot;&gt;\nhttp://www.moviemeter.nl/film/55264&lt;/a&gt;   &lt;a href=&quot;\nhttp://www.imdb.com/title/tt0872230&quot; rel=&quot;nofollow&quot; target=&quot;_NEW&quot;&gt;\nhttp://www.imdb.com/title/tt0872230&lt;/a&gt; \n\n\nBlack-Sam","torrent":{"xt":"urn:btih:8e22516bcc3718cdc189f381a7eb86611d5dcf3f","amp;dn":"My+So+Take+%282010%29%28DivX%29%28nl+subs%29+RETAIL+NTSC+TBS","amp;tr":["udp%3A%2F%2Ftracker.openbittorrent.com%3A80","udp%3A%2F%2Fopen.demonii.com%3A1337","udp%3A%2F%2Ftracker.coppersurfer.tk%3A6969","udp%3A%2F%2Fexodus.desync.com%3A6969"],"infoHash":"8e22516bcc3718cdc189f381a7eb86611d5dcf3f","infoHashBuffer":{"type":"Buffer","data":[142,34,81,107,204,55,24,205,193,137,243,129,167,235,134,97,29,93,207,63]},"announce":[],"urlList":[]}}